# xmcd
# Track frame offsets:
# 150
# 13865
# 28400
# 45837
# 62450
# 79087
# 94647
# 111422
# 125377
# 141397
# 156750
# 170187
#
# Disc length: 2539 seconds
# Revision: 1
# Processed by: cddbd v1.5.2PL0 Copyright (c) Steve Scherf et al.
# Submitted via: VisiTrax 2.11.3.279 - For more info visit www.synapsa.com
#
DISCID=9f09e90c
DTITLE=Slim Dusty And Anne Kirkpatrick - Two Singers - One Song
DYEAR=1989
DGENRE=Australian Country
TTITLE0=Slim Dusty And Anne Kirkpatrick - Crying On Each Other's Shoulder
TTITLE1=Slim Dusty And Anne Kirkpatrick - There At The Side Of The Road
TTITLE2=Slim Dusty And Anne Kirkpatrick - Two Singers (One Song)
TTITLE3=Slim Dusty And Anne Kirkpatrick - My Old Pal
TTITLE4=Slim Dusty And Anne Kirkpatrick - Loke A Boomerang
TTITLE5=Slim Dusty And Anne Kirkpatrick - Murray Moon
TTITLE6=Slim Dusty And Anne Kirkpatrick - Drovin'
TTITLE7=Anne Kirkpatrick - In My Grandmother's Arms
TTITLE8=Slim Dusty And Anne Kirkpatrick - My Favourite People
TTITLE9=Slim Dusty And Anne Kirkpatrick - Rock This Joint
TTITLE10=Slim Dusty And Anne Kirkpatrick - I Love My Truck
TTITLE11=Slim Dusty And Anne Kirkpatrick - We Can Change The World
EXTD=1989 EMI Music Australia
EXTT0=
EXTT1=
EXTT2=
EXTT3=
EXTT4=
EXTT5=
EXTT6=
EXTT7=
EXTT8=
EXTT9=
EXTT10=
EXTT11=
PLAYORDER=
